<svg xmlns="http://www.w3.org/2000/svg" viewBox="0 0 421.61 458.41"><defs><style>.cls-1{fill:#d5e0f5;}.cls-2{fill:#afb2c9;}.cls-3{fill:#fff;}</style></defs><g id="Layer_2" data-name="Layer 2"><g id="Layer_1-2" data-name="Layer 1"><path class="cls-1" d="M26,397.53c-.34,16.68,13.44,22.59,20.3,27.1,6.38,4.22,45.58,10,53,9.32,11.79-1.14,47.66-4.47,56-4.47s8.71,2.52,7.22,5.93c-1.8,4.14-15.88,11.62-23.24,13.87-8.79,2.7-41.19,9.29-66.66,9.12s-50.28-16.9-58.2-24.6S-.51,405.36,0,391.89s7.85-30.62,11.49-39.43,0-24.1-2.47-35.93S6.87,278.44,6.7,253.81s9.4-37.21,21.71-59.31S60,151.14,65.18,148.75s34.06-15.19,41.68-20.85,16.27-17.18,18.43-36.6,15.25-37.23,17.24-40.23,17.85-14.87,22.53-19.51,2.81-11.62,14-24.75,15-4.32,17.12,1.85c1.63,4.59,2.16,21.27,2.32,29.38a1.42,1.42,0,0,0-.14.59c-3.07,61.73-30.42,94.18-70.69,144.67C108.34,207.9,106,258.76,95.7,300.06c-8.77,35.12-49.46,73.33-61.48,84a1.6,1.6,0,0,0-.57,1.42C29.73,386.82,26.14,390.07,26,397.53Z"/><path class="cls-2" d="M235.35,102.56c-13.72,11.1-21.29,7.55-16,35.05s6.2,47.91-.91,63.85S191,240.05,190.55,258.68c-.38,16.11-.11,56.49,0,67.06a23,23,0,0,1-.33,4.38c-.84,4.95-2.12,18.6,9,20.6,13.19,2.37,13.8,5,8.64,13.27a1.59,1.59,0,0,0-.15,1.51c.92,2.33,3.27,9.42-1.57,11.6-5.83,2.65-15.1,13-29.72,6.21-11.46-5.37-21.55-28-25.36-37.48a1.7,1.7,0,0,0-3.17,0c-1.43,3.63-3.69,8.75-6.13,12a1.7,1.7,0,0,0,1.28,2.74,18.39,18.39,0,0,1,7.43,1.64c4.68,2.43,11.2,3.54,11.37,11.41s.73,11.52-7,13.42c-6.86,1.66-98,.38-119.41.07a1.71,1.71,0,0,1-1.68-1.56,1.6,1.6,0,0,1,.57-1.42c12-10.7,52.71-48.91,61.48-84,10.32-41.3,12.64-92.16,31.94-116.76,40.27-50.49,67.62-82.94,70.69-144.67a1.42,1.42,0,0,1,.14-.59,1.67,1.67,0,0,1,2.23-.92c4.51,2,14.45,6.53,18.69,10.45,5.07,4.72,1.3,8.35,7.74,13.8s14.07,3.06,18,8.37S249,91.47,235.35,102.56Z"/><rect class="cls-1" x="167.61" y="236.79" width="254.01" height="83.5"/><path class="cls-3" d="M210.72,276.57c0-12.26,6.71-20,16.62-20a13.32,13.32,0,0,1,10.06,4.62L235.78,263a11,11,0,0,0-8.44-3.93c-8.49,0-13.78,6.74-13.78,17.47s5.29,17.71,13.61,17.71c4,0,6.91-1.62,9.7-4.74l1.63,1.66c-3,3.44-6.47,5.54-11.54,5.54C217.45,296.71,210.72,288.88,210.72,276.57Z"/><path class="cls-3" d="M258,257.31h2.73L274.36,296h-2.89l-7.71-22.78c-1.56-4.59-2.94-8.65-4.29-13.37h-.23c-1.36,4.72-2.72,8.78-4.29,13.37L247.13,296h-2.74Zm-7.39,23.14H268v2.29H250.62Z"/><path class="cls-3" d="M293.25,259.64H279.78v-2.33h29.66v2.33H296V296h-2.71Z"/><path class="cls-3" d="M319.11,257.31h11.06c7.68,0,12.74,2.82,12.74,10.22,0,7.05-5.06,10.71-12.74,10.71h-8.33V296h-2.73ZM329.46,276c6.85,0,10.65-2.72,10.65-8.43s-3.8-7.94-10.65-7.94h-7.62V276Zm2.69.7L343.64,296H340.5l-10.95-18.56Z"/><path class="cls-3" d="M354.93,257.31h22.9v2.33H357.64v14.65h17v2.33h-17v17.06h20.78V296H354.93Z"/></g></g></svg>